<svg xmlns="http://www.w3.org/2000/svg" version="1.1" xmlns:xlink="http://www.w3.org/1999/xlink" width="17" height="17"><svg width="17" height="17" viewBox="0 0 17 17" fill="none" xmlns="http://www.w3.org/2000/svg">
<path d="M15.3676 4.14384L1.77262 8.09588L1.06125 6.1989C0.824128 5.32945 1.29837 4.46001 2.08878 4.22288L12.7593 1.06125C13.6287 0.824128 14.4982 1.29837 14.7353 2.08878L15.3676 4.14384Z" stroke="#F4CE03" stroke-width="1.58082" stroke-linecap="round" stroke-linejoin="round"></path>
<path d="M4.30188 3.59058L6.75215 6.67317" stroke="#F4CE03" stroke-width="1.58082" stroke-linecap="round" stroke-linejoin="round"></path>
<path d="M9.20251 2.08887L11.6528 5.2505" stroke="#F4CE03" stroke-width="1.58082" stroke-linecap="round" stroke-linejoin="round"></path>
<path d="M1.77271 8.09595H16.0001V14.4192C16.0001 14.8385 15.8335 15.2406 15.537 15.537C15.2406 15.8335 14.8385 16 14.4192 16H3.35352C2.93426 16 2.53218 15.8335 2.23572 15.537C1.93925 15.2406 1.77271 14.8385 1.77271 14.4192V8.09595Z" stroke="#F4CE03" stroke-width="1.58082" stroke-linecap="round" stroke-linejoin="round"></path>
</svg><style>@media (prefers-color-scheme: light) { :root { filter: none; } }
@media (prefers-color-scheme: dark) { :root { filter: none; } }
</style></svg>